<svg width="20" height="21" viewBox="0 0 20 21" fill="none" xmlns="http://www.w3.org/2000/svg">
<g clip-path="url(#clip0_1936_6699)">
<path fill-rule="evenodd" clip-rule="evenodd" d="M14.1923 0.89131C13.9482 0.647233 13.5525 0.647233 13.3084 0.89131L12.3049 1.89484C11.6152 1.53604 10.8315 1.33325 10.0003 1.33325C9.16919 1.33325 8.38542 1.53604 7.6958 1.89484L6.69227 0.89131C6.44819 0.647233 6.05246 0.647233 5.80838 0.89131C5.56431 1.13539 5.56431 1.53112 5.80838 1.77519L6.65256 2.61937C5.63803 3.53448 5.00033 4.85939 5.00033 6.33325H15.0003C15.0003 4.85939 14.3626 3.53448 13.3481 2.61937L14.1923 1.77519C14.4363 1.53112 14.4363 1.13539 14.1923 0.89131ZM9.16699 3.83325C9.16699 4.29349 8.7939 4.66658 8.33366 4.66658C7.87342 4.66658 7.50033 4.29349 7.50033 3.83325C7.50033 3.37301 7.87342 2.99992 8.33366 2.99992C8.7939 2.99992 9.16699 3.37301 9.16699 3.83325ZM11.667 4.66658C12.1272 4.66658 12.5003 4.29349 12.5003 3.83325C12.5003 3.37301 12.1272 2.99992 11.667 2.99992C11.2068 2.99992 10.8337 3.37301 10.8337 3.83325C10.8337 4.29349 11.2068 4.66658 11.667 4.66658Z" fill="#8595AD"/>
<path d="M2.91699 7.16658C2.22664 7.16658 1.66699 7.72623 1.66699 8.41658V12.5833C1.66699 13.2736 2.22664 13.8333 2.91699 13.8333C3.60735 13.8333 4.16699 13.2736 4.16699 12.5833V8.41658C4.16699 7.72623 3.60735 7.16658 2.91699 7.16658Z" fill="#8595AD"/>
<path d="M6.66699 15.4999V18.4166C6.66699 19.1069 7.22664 19.6666 7.91699 19.6666C8.60735 19.6666 9.16699 19.1069 9.16699 18.4166V15.4999H10.8337V18.4166C10.8337 19.1069 11.3933 19.6666 12.0837 19.6666C12.774 19.6666 13.3337 19.1069 13.3337 18.4166V15.4999H14.167C14.6272 15.4999 15.0003 15.1268 15.0003 14.6666V7.16658H5.00033V14.6666C5.00033 15.1268 5.37342 15.4999 5.83366 15.4999H6.66699Z" fill="#8595AD"/>
<path d="M17.0837 7.16658C16.3933 7.16658 15.8337 7.72623 15.8337 8.41658V12.5833C15.8337 13.2736 16.3933 13.8333 17.0837 13.8333C17.774 13.8333 18.3337 13.2736 18.3337 12.5833V8.41658C18.3337 7.72623 17.774 7.16658 17.0837 7.16658Z" fill="#8595AD"/>
</g>
<defs>
<clipPath id="clip0_1936_6699">
<rect width="20" height="20" fill="white" transform="translate(0 0.5)"/>
</clipPath>
</defs>
</svg>
