<svg width="20" height="21" viewBox="0 0 20 21" fill="none" xmlns="http://www.w3.org/2000/svg">
<path d="M12.5117 4.23274C12.8234 3.85467 13.082 3.4001 13.2418 2.90964C13.3883 2.45992 13.4525 1.97914 13.3997 1.49782L13.3817 1.33325L13.2169 1.33996C12.7811 1.35772 12.3024 1.50107 11.8565 1.73032C11.4122 1.95878 10.9974 2.27409 10.688 2.6365C10.389 2.98301 10.1105 3.44035 9.93846 3.94153C9.79065 4.37221 9.72047 4.8376 9.78125 5.29732L9.8001 5.43987L9.94326 5.45103C10.4111 5.4875 10.8812 5.37733 11.31 5.17276C11.7773 4.94986 12.1973 4.61298 12.5117 4.23274Z" fill="#1E32E1"/>
<path d="M14.6059 10.1795C14.587 8.2757 16.1134 7.3312 16.2714 7.23349C16.2788 7.22891 16.2799 7.22837 16.2806 7.22802C16.2812 7.22771 16.2815 7.22754 16.2853 7.22511L16.4382 7.12637L16.3359 6.97655C15.9477 6.4084 15.4754 6.02957 15.0098 5.77724C14.279 5.38116 13.564 5.29894 13.2207 5.28401C12.4034 5.20273 11.6304 5.50746 10.9985 5.75657C10.6244 5.90405 10.3035 6.0306 10.0858 6.0306C9.83936 6.0306 9.5107 5.90019 9.14182 5.75381C8.6205 5.54693 8.02447 5.3104 7.39261 5.32186C6.67086 5.33268 5.97747 5.54173 5.37143 5.90904C4.76261 6.27804 4.24187 6.80688 3.86929 7.45488C3.20187 8.61305 3.05674 10.0154 3.23036 11.3959C3.44145 13.0742 4.12468 14.7247 4.91029 15.8591C5.25832 16.3625 5.64023 16.8972 6.07614 17.3056C6.53177 17.7325 7.04445 18.0207 7.63567 17.9987C8.14768 17.9783 8.50377 17.8269 8.87125 17.6704C9.26164 17.504 9.66694 17.3314 10.301 17.3314C10.9045 17.3314 11.2902 17.4983 11.6611 17.6587C12.05 17.827 12.4242 17.9889 12.9957 17.9782C13.6021 17.9669 14.0929 17.6956 14.5227 17.2937C14.9377 16.9055 15.2893 16.4022 15.6343 15.8982C16.3948 14.787 16.7314 13.7086 16.781 13.5495C16.783 13.5433 16.7834 13.5416 16.7836 13.5409C16.7838 13.5399 16.7834 13.5409 16.7851 13.5356L16.8374 13.3793L16.6801 13.3142C16.5727 13.2703 14.6259 12.4747 14.6059 10.1795Z" fill="#1E32E1"/>
</svg>