<svg width="8" height="9" viewBox="0 0 8 9" fill="none" xmlns="http://www.w3.org/2000/svg">
<path d="M0.247173 5.06285C-0.0823909 4.72569 -0.0823909 4.17905 0.247173 3.8419C0.576737 3.50474 1.11107 3.50474 1.44063 3.8419L3.57573 6.02619C3.9053 6.36334 3.9053 6.90998 3.57573 7.24713C3.24617 7.58429 2.71184 7.58429 2.38228 7.24713L0.247173 5.06285Z" fill="#060A2D"/>
<path d="M3.57573 7.24713C3.24617 7.58429 2.71184 7.58429 2.38228 7.24713C2.05271 6.90998 2.05271 6.36334 2.38228 6.02619L6.55937 1.75287C6.88893 1.41571 7.42326 1.41571 7.75283 1.75287C8.08239 2.09002 8.08239 2.63666 7.75283 2.97381L3.57573 7.24713Z" fill="#060A2D"/>
</svg>
