<svg width="105" height="60" viewBox="0 0 105 60" fill="none" xmlns="http://www.w3.org/2000/svg">
<path d="M55.4277 37.6904C54.4939 37.6904 53.6451 37.5206 52.8812 37.266C52.1172 37.0113 51.4382 36.5869 50.844 35.9927C50.2498 35.3986 49.8254 34.7195 49.4859 33.8707C49.1463 33.0218 48.9766 32.0032 48.9766 30.8998V30.3905C48.9766 29.3719 49.1463 28.4382 49.4859 27.5893C49.8254 26.8254 50.3347 26.1463 50.9289 25.5521C51.523 24.958 52.2021 24.6184 52.9661 24.2789C53.73 24.0243 54.5788 23.8545 55.4277 23.8545C56.3614 23.8545 57.1253 23.9394 57.8893 24.194C58.5683 24.4487 59.1625 24.7882 59.6718 25.2126C60.1811 25.637 60.5206 26.1463 60.8601 26.7405C61.1148 27.3347 61.2846 27.9289 61.3695 28.6079H58.059C57.8893 28.0137 57.5497 27.5045 57.2102 27.1649C56.7858 26.8254 56.2765 26.6556 55.5125 26.6556C55.0881 26.6556 54.6637 26.7405 54.3242 26.9103C53.9846 27.08 53.6451 27.2498 53.3056 27.5893C53.0509 27.9289 52.7963 28.2684 52.6265 28.7777C52.4568 29.2021 52.3719 29.7963 52.3719 30.4753V30.9846C52.3719 31.6637 52.4568 32.2579 52.6265 32.7672C52.7963 33.2765 52.9661 33.7009 53.3056 33.9555C53.5602 34.2951 53.8998 34.5497 54.3242 34.6346C54.6637 34.8044 55.0881 34.8893 55.5125 34.8893C56.1916 34.8893 56.7009 34.7195 57.2102 34.38C57.6346 34.0404 57.9741 33.5311 58.1439 32.937H61.4543C61.3694 33.7009 61.1997 34.2951 60.8601 34.8893C60.5206 35.4834 60.0962 35.9927 59.5869 36.4171C59.0776 36.8416 58.4834 37.1811 57.8044 37.3509C57.0404 37.6055 56.2765 37.6904 55.4277 37.6904Z" fill="black"/>
<path d="M68.0761 37.6054C67.3121 37.6054 66.6331 37.5205 66.1238 37.4356C65.6145 37.2659 65.1052 37.0112 64.7657 36.6717C64.4261 36.3322 64.1715 35.8229 64.0017 35.2287C63.832 34.6345 63.7471 33.8706 63.7471 33.0217V20.0347H67.0575V32.5973C67.0575 33.0217 67.0575 33.3613 67.1424 33.6159C67.2273 33.8706 67.3121 34.1252 67.397 34.295C67.5668 34.4647 67.7366 34.6345 67.9063 34.6345C68.161 34.7194 68.4156 34.7194 68.7552 34.7194C68.9249 34.7194 69.0947 34.7194 69.2645 34.7194C69.4342 34.7194 69.5191 34.7194 69.6889 34.7194V37.4356C69.604 37.4356 69.5191 37.4356 69.3493 37.5205C69.2645 37.5205 69.0947 37.5205 68.9249 37.5205C68.7552 37.5205 68.6703 37.5205 68.5005 37.5205H68.0761V37.6054Z" fill="black"/>
<path d="M73.6779 22.8361C73.0837 22.8361 72.5744 22.6663 72.2349 22.3268C71.8954 21.9872 71.7256 21.5628 71.7256 21.0535C71.7256 20.5442 71.8954 20.1198 72.2349 19.7803C72.5744 19.4408 73.0837 19.271 73.6779 19.271C74.2721 19.271 74.7814 19.4408 75.1209 19.7803C75.4604 20.1198 75.6302 20.5442 75.6302 21.0535C75.6302 21.5628 75.4604 21.9872 75.1209 22.3268C74.7814 22.6663 74.357 22.8361 73.6779 22.8361ZM72.0651 24.2791H75.3755V37.4359H72.0651V24.2791Z" fill="black"/>
<path d="M84.3739 37.6904C83.4402 37.6904 82.5914 37.5206 81.8275 37.266C81.0635 37.0113 80.3844 36.5869 79.7903 35.9927C79.1961 35.3986 78.7717 34.7195 78.4321 33.8707C78.0926 33.0218 77.9229 32.0032 77.9229 30.8998V30.3905C77.9229 29.3719 78.0926 28.4382 78.4321 27.5893C78.7717 26.8254 79.281 26.1463 79.8752 25.5521C80.4693 24.958 81.1484 24.6184 81.9123 24.2789C82.6763 24.0243 83.5251 23.8545 84.3739 23.8545C85.3077 23.8545 86.0716 23.9394 86.8355 24.194C87.5146 24.4487 88.1088 24.7882 88.6181 25.2126C89.1274 25.637 89.4669 26.1463 89.8064 26.7405C90.0611 27.3347 90.2309 27.9289 90.3157 28.6079H87.0053C86.8355 28.0137 86.496 27.5045 86.1565 27.1649C85.7321 26.8254 85.2228 26.6556 84.4588 26.6556C84.0344 26.6556 83.61 26.7405 83.2705 26.9103C82.9309 27.08 82.5914 27.2498 82.2519 27.5893C81.9972 27.9289 81.7426 28.2684 81.5728 28.7777C81.403 29.2021 81.3182 29.7963 81.3182 30.4753V30.9846C81.3182 31.6637 81.403 32.2579 81.5728 32.7672C81.7426 33.2765 81.9123 33.7009 82.2519 33.9555C82.5065 34.2951 82.846 34.5497 83.2705 34.6346C83.61 34.8044 84.0344 34.8893 84.4588 34.8893C85.1379 34.8893 85.6472 34.7195 86.1565 34.38C86.5809 34.0404 86.9204 33.5311 87.0902 32.937H90.4006C90.3157 33.7009 90.146 34.2951 89.8064 34.8893C89.4669 35.4834 89.0425 35.9927 88.5332 36.4171C88.0239 36.8416 87.4297 37.1811 86.7507 37.3509C85.9867 37.6055 85.2228 37.6904 84.3739 37.6904Z" fill="black"/>
<path d="M92.6064 37.4356V20.0347H95.832V29.7113L100.67 24.2788H104.49L99.5668 29.7962L104.999 37.4356H101.095L97.3599 32.088L95.832 33.7008V37.4356H92.6064Z" fill="black"/>
<path d="M13.5812 37.7753C8.31851 32.5125 8.4034 27.7591 13.5812 22.4964C18.7591 17.3185 23.5974 17.2336 28.8601 22.4964C34.1229 27.7591 34.038 32.5125 28.8601 37.7753C26.2288 40.4066 23.7672 41.6799 21.2207 41.6799C18.6742 41.7648 16.2126 40.4066 13.5812 37.7753ZM7.21504 16.215C2.4616 20.9685 0 25.5521 0 30.1358V30.2207C0 34.8044 2.37672 39.388 7.21504 44.1415C12.0534 48.9798 16.637 51.3565 21.1358 51.3565H21.2207C25.8044 51.3565 30.388 48.8949 35.1415 44.1415C44.7332 34.5497 44.8181 25.8068 35.1415 16.1302C30.388 11.3767 25.8044 9 21.2207 9C16.5521 9 11.9685 11.3767 7.21504 16.215Z" fill="url(#paint0_linear_2232_2123)"/>
<defs>
<linearGradient id="paint0_linear_2232_2123" x1="6.82203" y1="44.4689" x2="35.1635" y2="16.2866" gradientUnits="userSpaceOnUse">
<stop stop-color="#0073FF"/>
<stop offset="1" stop-color="#00DEFF"/>
</linearGradient>
</defs>
</svg>
