<svg width="33" height="32" viewBox="0 0 33 32" fill="none" xmlns="http://www.w3.org/2000/svg">
<path fill-rule="evenodd" clip-rule="evenodd" d="M7.83366 8C7.83366 5.79086 9.62452 4 11.8337 4C14.0428 4 15.8337 5.79086 15.8337 8C15.8337 10.2091 14.0428 12 11.8337 12C9.62452 12 7.83366 10.2091 7.83366 8ZM11.8337 6.66667C11.0973 6.66667 10.5003 7.26362 10.5003 8C10.5003 8.73638 11.0973 9.33333 11.8337 9.33333C12.57 9.33333 13.167 8.73638 13.167 8C13.167 7.26362 12.57 6.66667 11.8337 6.66667Z" fill="#060A2D"/>
<path fill-rule="evenodd" clip-rule="evenodd" d="M17.167 8C17.167 5.79086 18.9579 4 21.167 4C23.3761 4 25.167 5.79086 25.167 8C25.167 10.2091 23.3761 12 21.167 12C18.9579 12 17.167 10.2091 17.167 8ZM21.167 6.66667C20.4306 6.66667 19.8337 7.26362 19.8337 8C19.8337 8.73638 20.4306 9.33333 21.167 9.33333C21.9034 9.33333 22.5003 8.73638 22.5003 8C22.5003 7.26362 21.9034 6.66667 21.167 6.66667Z" fill="#060A2D"/>
<path fill-rule="evenodd" clip-rule="evenodd" d="M1.16699 14.6667C1.16699 12.4575 2.95785 10.6667 5.16699 10.6667C7.37613 10.6667 9.16699 12.4575 9.16699 14.6667C9.16699 16.8758 7.37613 18.6667 5.16699 18.6667C2.95785 18.6667 1.16699 16.8758 1.16699 14.6667ZM5.16699 13.3333C4.43061 13.3333 3.83366 13.9303 3.83366 14.6667C3.83366 15.403 4.43061 16 5.16699 16C5.90337 16 6.50033 15.403 6.50033 14.6667C6.50033 13.9303 5.90337 13.3333 5.16699 13.3333Z" fill="#060A2D"/>
<path fill-rule="evenodd" clip-rule="evenodd" d="M16.5002 13.3333C13.0922 13.3333 10.7371 15.8783 9.47435 18.4037C8.82688 19.6987 8.4062 21.0918 8.24047 22.3703C8.08041 23.605 8.13488 24.9174 8.64101 25.9296C9.10611 26.8598 9.79608 27.5059 10.7262 27.7485C11.5642 27.9671 12.3949 27.7977 13.0332 27.6154C13.3677 27.5198 13.7037 27.4034 14.0143 27.2938L14.1757 27.2367C14.4359 27.1445 14.6807 27.0578 14.9304 26.9773C15.5341 26.7826 16.0431 26.6667 16.5002 26.6667C16.9574 26.6667 17.4664 26.7826 18.0701 26.9773C18.3197 27.0578 18.5646 27.1445 18.8248 27.2367L18.9862 27.2938C19.2968 27.4034 19.6328 27.5198 19.9673 27.6154C20.6056 27.7977 21.4362 27.9671 22.2743 27.7485C23.2044 27.5059 23.8944 26.8598 24.3595 25.9296C24.8656 24.9174 24.9201 23.605 24.76 22.3703C24.5943 21.0918 24.1736 19.6987 23.5261 18.4037C22.2634 15.8783 19.9083 13.3333 16.5002 13.3333ZM11.0261 24.737C10.8656 24.416 10.7534 23.7283 10.885 22.7131C11.011 21.7415 11.3403 20.6347 11.8595 19.5963C12.9301 17.455 14.575 16 16.5002 16C18.4255 16 20.0704 17.455 21.141 19.5963C21.6602 20.6347 21.9895 21.7415 22.1155 22.7131C22.2471 23.7283 22.1349 24.416 21.9743 24.737C21.7804 25.1249 21.6404 25.1587 21.6049 25.1673L21.6012 25.1682C21.4809 25.1996 21.2282 25.2023 20.6999 25.0513C20.4511 24.9802 20.1828 24.8882 19.8737 24.7791L19.725 24.7265C19.4645 24.6342 19.1778 24.5326 18.8888 24.4394C18.2007 24.2175 17.3764 24 16.5002 24C15.6241 24 14.7997 24.2175 14.1117 24.4394C13.8226 24.5326 13.5359 24.6342 13.2754 24.7265L13.1268 24.7791C12.8177 24.8882 12.5494 24.9802 12.3006 25.0513C11.7722 25.2023 11.5196 25.1996 11.3993 25.1682L11.3956 25.1673C11.3601 25.1587 11.2201 25.1249 11.0261 24.737Z" fill="#060A2D"/>
<path fill-rule="evenodd" clip-rule="evenodd" d="M27.8337 10.6667C25.6245 10.6667 23.8337 12.4575 23.8337 14.6667C23.8337 16.8758 25.6245 18.6667 27.8337 18.6667C30.0428 18.6667 31.8337 16.8758 31.8337 14.6667C31.8337 12.4575 30.0428 10.6667 27.8337 10.6667ZM26.5003 14.6667C26.5003 13.9303 27.0973 13.3333 27.8337 13.3333C28.57 13.3333 29.167 13.9303 29.167 14.6667C29.167 15.403 28.57 16 27.8337 16C27.0973 16 26.5003 15.403 26.5003 14.6667Z" fill="#060A2D"/>
</svg>
