<svg width="106" height="60" viewBox="0 0 106 60" fill="none" xmlns="http://www.w3.org/2000/svg">
<g clip-path="url(#clip0_2157_1799)">
<path d="M30.1466 36.824C30.1466 37.32 30.2701 37.816 30.8878 37.816H34.0995C34.7172 37.816 34.8407 37.32 34.8407 36.824V27.028C34.8407 26.408 34.8407 25.788 34.7172 25.292C34.5936 24.796 34.4701 24.3 34.3466 23.928C34.223 23.556 33.976 23.184 33.7289 22.936C33.4819 22.688 33.1113 22.44 32.8642 22.192C32.4936 21.944 32.123 21.82 31.7525 21.572C31.3819 21.448 30.8878 21.324 30.5172 21.2C30.023 21.076 29.5289 21.076 29.0348 20.952C28.5407 20.952 27.923 20.952 27.1819 20.952C22.7348 20.952 20.2642 22.316 19.6466 25.044C19.6466 25.168 19.6466 25.292 19.6466 25.416C19.6466 25.54 19.6466 25.664 19.7701 25.664C19.8936 25.788 19.8936 25.788 20.0172 25.912C20.1407 25.912 20.2642 26.036 20.3878 26.036H23.1054C23.8466 26.036 23.8466 25.788 24.0936 25.168C24.2172 24.796 24.4642 24.548 24.7113 24.3C25.2054 23.804 25.9466 23.68 26.9348 23.68C27.923 23.68 28.6642 23.928 29.1583 24.3C29.6525 24.672 29.8995 25.292 29.8995 26.036C29.8995 26.904 29.6525 27.524 28.5407 27.524C25.823 27.4 22.9819 27.772 21.376 28.64C19.7701 29.508 18.7819 31.368 18.7819 33.352C18.7819 34.096 18.9054 34.84 19.276 35.46C19.523 36.08 20.0172 36.576 20.5113 36.948C21.0054 37.32 21.623 37.692 22.3642 37.816C23.1054 38.064 23.8466 38.188 24.7113 38.064C25.823 38.064 26.8113 37.94 27.7995 37.692C28.6642 37.444 30.1466 36.452 30.2701 36.328L30.1466 36.824ZM30.023 33.352C30.023 33.352 29.1583 35.088 26.3172 35.088C25.576 35.088 24.9583 34.964 24.3407 34.592C23.8466 34.22 23.5995 33.724 23.5995 32.856C23.5995 31.864 23.9701 31.12 24.8348 30.748C25.6995 30.376 27.3054 30.128 28.5407 30.128C29.776 30.128 30.1466 30.872 30.1466 31.492C30.023 31.616 30.023 33.352 30.023 33.352ZM1.61128 37.692H4.82305C5.68775 37.692 5.56422 36.7 5.56422 36.7V33.972C3.21716 33.104 1.73481 31.988 0.623047 30.872V36.576C0.746576 36.824 0.623047 37.692 1.61128 37.692ZM18.4113 21.944C18.4113 21.2 18.2878 20.58 18.1642 19.836C18.0407 19.216 17.6701 18.472 17.2995 17.976C16.9289 17.356 16.4348 16.86 15.9407 16.488C15.4466 16.116 14.8289 15.744 14.2113 15.62C13.5936 15.372 12.8525 15.124 12.1113 15.124C11.2466 15 10.5054 15 9.51717 15H2.1054C1.48775 15 0.746576 15.372 0.746576 16.24V28.144C1.73481 30.128 3.46422 32.236 5.56422 33.228V30.872C5.56422 29.632 6.55246 29.384 6.92305 29.384H9.14658C12.2348 29.384 14.4583 28.764 16.0642 27.524C17.6701 26.284 18.4113 24.424 18.4113 21.944ZM13.0995 24.052C12.8525 24.424 12.4819 24.796 11.9878 25.044C11.4936 25.292 10.876 25.416 10.3819 25.416C9.76422 25.416 9.14658 25.54 8.52893 25.54H6.42893C5.93481 25.54 5.56422 25.168 5.56422 24.548V19.712C5.56422 19.588 5.56422 19.464 5.56422 19.464C5.56422 19.34 5.68775 19.216 5.68775 19.216C5.81128 19.092 5.81128 19.092 5.93481 19.092C6.05834 19.092 6.18187 19.092 6.18187 19.092H8.28187C9.02305 19.092 9.64069 19.092 10.2583 19.092C10.7525 19.092 11.3701 19.216 11.8642 19.464C12.3583 19.712 12.7289 19.96 12.8525 20.456C13.0995 20.828 13.223 21.448 13.223 22.316C13.4701 22.812 13.3466 23.432 13.0995 24.052ZM38.6701 40.544C38.423 40.544 38.176 40.544 37.9289 40.544C37.6819 40.544 37.0642 40.544 37.0642 41.04V43.272C37.0642 44.14 37.4348 44.14 37.6819 44.264C38.2995 44.388 39.0407 44.512 39.7819 44.512C40.6466 44.512 41.3878 44.388 42.1289 44.016C42.8701 43.644 43.4878 43.272 43.9819 42.652C44.476 42.032 44.9701 41.288 45.3407 40.544C45.7113 39.676 46.0819 38.808 46.4525 37.816C46.4525 37.816 46.576 37.444 46.9466 36.7C46.2054 37.32 42.376 40.916 38.6701 40.544ZM51.5172 21.324H48.676C48.4289 21.324 48.1819 21.448 47.9348 21.572C47.6878 21.696 47.5642 21.944 47.4407 22.192C47.1936 22.812 44.1054 31.368 44.1054 31.368C44.1054 31.368 41.1407 23.06 40.8936 22.44C40.6466 21.82 40.276 21.324 39.5348 21.324H36.8172C35.8289 21.324 35.8289 22.068 35.9525 22.316C36.076 22.564 39.6583 32.484 41.1407 36.328C41.5113 37.196 41.6348 37.444 41.6348 37.816C41.6348 38.188 41.2642 38.808 41.0172 39.304C40.8936 39.428 40.7701 39.676 40.6466 39.8C43.3642 38.932 46.576 36.08 48.1819 32.856C49.7878 28.392 51.8878 22.564 52.0113 22.192C52.2583 21.696 52.2583 21.324 51.5172 21.324Z" fill="#232225"/>
<path d="M89.3168 24.9199C87.5873 24.9199 86.4756 26.0359 86.2285 28.0199H92.2815C92.1579 26.2839 91.1697 24.9199 89.3168 24.9199Z" fill="#33CCCC"/>
<path d="M102.04 28.0197C101.423 27.2757 97.5932 22.3157 96.2344 20.9517C94.6285 19.3397 93.2697 18.5957 91.7874 18.5957H59.1756C56.2109 18.5957 55.2227 19.5877 55.2227 22.9357V36.4517C55.2227 39.7997 55.4697 41.2877 59.7932 41.2877H91.7874C93.2697 41.2877 94.8756 40.0477 95.9874 38.8077C97.3462 37.4437 101.423 33.1037 102.04 31.9877C102.411 31.3677 102.534 30.7477 102.534 30.0037C102.658 29.2597 102.411 28.5157 102.04 28.0197ZM58.1874 23.3077C58.1874 22.8117 58.3109 22.4397 58.9285 22.4397H61.6462C62.3874 22.4397 62.3874 22.8117 62.3874 23.3077V23.4317C61.0285 24.1757 59.5462 24.9197 58.1874 26.7797V23.3077ZM79.558 36.8237H76.7168C75.9756 36.8237 76.0991 36.2037 76.0991 35.9557V27.6477C76.0991 26.6557 75.9756 26.0357 75.7285 25.6637C75.605 25.4157 75.358 25.2917 75.1109 25.1677C74.8638 25.0437 74.6168 25.0437 74.3697 25.0437C72.8874 25.0437 71.8991 26.5317 71.405 27.1517V36.0797C71.405 36.3277 71.5285 36.8237 70.6638 36.8237H67.9462C67.205 36.8237 67.3285 36.2037 67.3285 35.9557V27.6477C67.3285 26.6557 67.205 26.0357 66.958 25.6637C66.7109 25.2917 66.2168 25.0437 65.5991 25.0437C63.9932 25.0437 63.1285 26.5317 62.6344 27.1517V36.0797C62.6344 36.3277 62.758 36.8237 61.8932 36.8237H59.0521C58.3109 36.8237 58.4344 36.2037 58.4344 35.9557V30.4997C58.4344 26.9037 62.8815 23.4317 63.1285 23.1837C64.2403 22.3157 65.5991 21.9437 66.958 21.9437C67.9462 21.9437 68.8109 22.0677 69.6756 22.5637C70.4168 23.0597 70.9109 23.6797 71.2815 24.5477C71.8991 23.8037 72.6403 23.1837 73.505 22.6877C74.2462 22.1917 75.1109 22.0677 75.9756 22.0677C79.1874 22.0677 80.6697 23.8037 80.6697 27.3997V36.0797C80.2991 36.3277 80.4227 36.8237 79.558 36.8237ZM95.2462 30.4997H86.2285C86.2285 32.8557 87.4638 34.0957 89.4403 34.0957C90.6756 34.0957 91.4168 33.5997 92.0344 32.4837C92.1579 32.3597 92.2815 32.2357 92.405 32.1117C92.5285 31.9877 92.7756 31.9877 92.8991 31.9877H95.2462C95.3697 31.9877 95.3697 31.9877 95.4932 31.9877C95.6168 31.9877 95.6168 32.1117 95.6168 32.1117L95.7403 32.2357C95.7403 32.3597 95.7403 32.3597 95.7403 32.4837C94.7521 35.0877 92.405 36.5757 89.4403 36.5757C85.1168 36.5757 82.3991 33.7237 82.3991 29.3837C82.3991 25.1677 85.3638 22.0677 89.3168 22.0677C93.3932 22.0677 95.9874 24.7957 96.1109 29.2597C96.1109 29.8797 95.9874 30.4997 95.2462 30.4997Z" fill="#33CCCC"/>
</g>
<defs>
<clipPath id="clip0_2157_1799">
<rect width="105" height="31" fill="white" transform="translate(0.5 15)"/>
</clipPath>
</defs>
</svg>
