<svg width="16" height="16" viewBox="0 0 16 16" fill="none" xmlns="http://www.w3.org/2000/svg">
<path fill-rule="evenodd" clip-rule="evenodd" d="M7.37301 4.73876C6.48494 4.18372 5.33301 4.82218 5.33301 5.86942V10.1304C5.33301 11.1777 6.48494 11.8161 7.37301 11.2611L10.7818 9.13059C11.6174 8.60836 11.6174 7.39148 10.7818 6.86926L7.37301 4.73876ZM6.66634 5.86942L10.0751 7.99992L6.66634 10.1304V5.86942Z" fill="#1E32E1"/>
<path fill-rule="evenodd" clip-rule="evenodd" d="M7.99967 1.33325C4.31778 1.33325 1.33301 4.31802 1.33301 7.99992C1.33301 11.6818 4.31778 14.6666 7.99967 14.6666C11.6816 14.6666 14.6663 11.6818 14.6663 7.99992C14.6663 4.31802 11.6816 1.33325 7.99967 1.33325ZM2.66634 7.99992C2.66634 5.0544 5.05416 2.66659 7.99967 2.66659C10.9452 2.66659 13.333 5.0544 13.333 7.99992C13.333 10.9454 10.9452 13.3333 7.99967 13.3333C5.05416 13.3333 2.66634 10.9454 2.66634 7.99992Z" fill="#1E32E1"/>
</svg>
