<svg width="16" height="16" viewBox="0 0 16 16" fill="none" xmlns="http://www.w3.org/2000/svg">
<circle cx="8" cy="8" r="7.5" fill="white" stroke="#C2CAD6"/>
<rect width="8" height="8" transform="translate(4 4)" fill="white"/>
<path d="M8.68362 10.25C8.68362 10.6642 8.33024 11 7.89432 11C7.4584 11 7.10502 10.6642 7.10502 10.25C7.10502 9.83579 7.4584 9.5 7.89432 9.5C8.33024 9.5 8.68362 9.83579 8.68362 10.25Z" fill="#14181F"/>
<path d="M6.5411 5.46274C6.19147 5.75806 6.0111 6.15488 6 6.65322H7.12799C7.14187 6.4291 7.22234 6.25112 7.36941 6.11929C7.51648 5.98481 7.70933 5.91758 7.94797 5.91758C8.18384 5.91758 8.3753 5.97822 8.52237 6.09951C8.66667 6.2208 8.73881 6.37637 8.73881 6.56621C8.73881 6.75342 8.68887 6.90767 8.58897 7.02896C8.49185 7.15024 8.30871 7.28735 8.03954 7.44028C7.74818 7.60376 7.54422 7.78174 7.42768 7.97422C7.30836 8.17725 7.26257 8.43169 7.29032 8.73755L7.29865 8.96694H8.40166V8.75732C8.40166 8.56221 8.45023 8.404 8.54735 8.28272C8.64447 8.16143 8.83177 8.02432 9.10926 7.87139C9.70309 7.53916 10 7.09224 10 6.53062C10 6.0771 9.81963 5.70928 9.4589 5.42715C9.09261 5.14238 8.61394 5 8.02289 5C7.39577 5 6.90184 5.15425 6.5411 5.46274Z" fill="#14181F"/>
</svg>
