<svg width="8" height="8" viewBox="0 0 8 8" fill="none" xmlns="http://www.w3.org/2000/svg">
<rect width="8" height="8" fill="white"/>
<path d="M4.68362 6.25C4.68362 6.66421 4.33024 7 3.89432 7C3.4584 7 3.10502 6.66421 3.10502 6.25C3.10502 5.83579 3.4584 5.5 3.89432 5.5C4.33024 5.5 4.68362 5.83579 4.68362 6.25Z" fill="#14181F"/>
<path d="M2.5411 1.46274C2.19147 1.75806 2.0111 2.15488 2 2.65322H3.12799C3.14187 2.4291 3.22234 2.25112 3.36941 2.11929C3.51648 1.98481 3.70933 1.91758 3.94797 1.91758C4.18384 1.91758 4.3753 1.97822 4.52237 2.09951C4.66667 2.2208 4.73881 2.37637 4.73881 2.56621C4.73881 2.75342 4.68887 2.90767 4.58897 3.02896C4.49185 3.15024 4.30871 3.28735 4.03954 3.44028C3.74818 3.60376 3.54422 3.78174 3.42768 3.97422C3.30836 4.17725 3.26257 4.43169 3.29032 4.73755L3.29865 4.96694H4.40166V4.75732C4.40166 4.56221 4.45023 4.404 4.54735 4.28272C4.64447 4.16143 4.83177 4.02432 5.10926 3.87139C5.70309 3.53916 6 3.09224 6 2.53062C6 2.0771 5.81963 1.70928 5.4589 1.42715C5.09261 1.14238 4.61394 1 4.02289 1C3.39577 1 2.90184 1.15425 2.5411 1.46274Z" fill="#14181F"/>
</svg>
