<svg width="23" height="22" viewBox="0 0 23 22" fill="none" xmlns="http://www.w3.org/2000/svg">
<path fill-rule="evenodd" clip-rule="evenodd" d="M11.5 1.83325C6.43743 1.83325 2.33337 5.93731 2.33337 10.9999C2.33337 16.0625 6.43743 20.1666 11.5 20.1666C16.5626 20.1666 20.6667 16.0625 20.6667 10.9999C20.6667 5.93731 16.5626 1.83325 11.5 1.83325ZM4.16671 10.9999C4.16671 6.94983 7.44995 3.66659 11.5 3.66659C13.1947 3.66659 14.7551 4.24142 15.9969 5.20675L5.70687 15.4968C4.74154 14.255 4.16671 12.6946 4.16671 10.9999ZM7.00324 16.7932C8.24503 17.7584 9.80541 18.3333 11.5 18.3333C15.5501 18.3333 18.8334 15.05 18.8334 10.9999C18.8334 9.30528 18.2586 7.7449 17.2933 6.50312L7.00324 16.7932Z" fill="#FF5757"/>
</svg>
