<svg width="20" height="20" viewBox="0 0 20 20" fill="none" xmlns="http://www.w3.org/2000/svg">
<path d="M9.73139 12.9397L14.3147 8.35639L13.0184 7.06003L9.08321 10.9952L6.52306 8.43503L5.22669 9.73139L8.43503 12.9397C8.79301 13.2977 9.37341 13.2977 9.73139 12.9397Z" fill="#31B546"/>
<path fill-rule="evenodd" clip-rule="evenodd" d="M9.99992 0.833252C4.93731 0.833252 0.833252 4.93731 0.833252 9.99992C0.833252 15.0625 4.93731 19.1666 9.99992 19.1666C15.0625 19.1666 19.1666 15.0625 19.1666 9.99992C19.1666 4.93731 15.0625 0.833252 9.99992 0.833252ZM2.66659 9.99992C2.66659 5.94983 5.94983 2.66659 9.99992 2.66659C14.05 2.66659 17.3333 5.94983 17.3333 9.99992C17.3333 14.05 14.05 17.3333 9.99992 17.3333C5.94983 17.3333 2.66659 14.05 2.66659 9.99992Z" fill="#31B546"/>
</svg>
