<svg width="20" height="21" viewBox="0 0 20 21" fill="none" xmlns="http://www.w3.org/2000/svg">
<path d="M11.2503 11.3334C11.2503 10.7581 10.784 10.2917 10.2087 10.2917C9.63336 10.2917 9.16699 10.7581 9.16699 11.3334C9.16699 11.9087 9.63336 12.3751 10.2087 12.3751C10.784 12.3751 11.2503 11.9087 11.2503 11.3334Z" fill="#060A2D"/>
<path fill-rule="evenodd" clip-rule="evenodd" d="M1.66699 13.0001C1.66699 14.3808 2.78628 15.5001 4.16699 15.5001H9.16699V17.1667H6.66699V18.8334H13.3337V17.1667H10.8337V15.5001H15.8337C17.2144 15.5001 18.3337 14.3808 18.3337 13.0001V4.66675C18.3337 3.28604 17.2144 2.16675 15.8337 2.16675H4.16699C2.78628 2.16675 1.66699 3.28604 1.66699 4.66675V13.0001ZM4.16699 13.8334C3.70676 13.8334 3.33366 13.4603 3.33366 13.0001L3.33366 4.66675C3.33366 4.20651 3.70676 3.83342 4.16699 3.83342L15.8337 3.83341C16.2939 3.83341 16.667 4.20651 16.667 4.66675V13.0001C16.667 13.4603 16.2939 13.8334 15.8337 13.8334H4.16699Z" fill="#060A2D"/>
</svg>
