<svg width="16" height="16" viewBox="0 0 16 16" fill="none" xmlns="http://www.w3.org/2000/svg">
<path fill-rule="evenodd" clip-rule="evenodd" d="M8.00065 1.33325C6.1597 1.33325 4.66732 2.82564 4.66732 4.66659C4.66732 6.50753 6.1597 7.99992 8.00065 7.99992C9.8416 7.99992 11.334 6.50753 11.334 4.66659C11.334 2.82564 9.8416 1.33325 8.00065 1.33325ZM6.00065 4.66659C6.00065 3.56202 6.89608 2.66659 8.00065 2.66659C9.10522 2.66659 10.0007 3.56202 10.0007 4.66659C10.0007 5.77115 9.10522 6.66659 8.00065 6.66659C6.89608 6.66659 6.00065 5.77115 6.00065 4.66659Z" fill="black"/>
<path d="M8.00072 8.66659C4.39376 8.66659 2.33398 11.7321 2.33398 14.6666H3.66732C3.66732 12.2677 5.31604 9.99992 8.00072 9.99992C10.6854 9.99992 12.334 12.2677 12.334 14.6666H13.6673C13.6673 11.7321 11.6077 8.66659 8.00072 8.66659Z" fill="black"/>
</svg>
