<svg width="106" height="60" viewBox="0 0 106 60" fill="none" xmlns="http://www.w3.org/2000/svg">
<path d="M54.5611 34.1711H54.3899L54.1046 33.7438H53.9335V34.1711H53.8193V33.231H54.2473C54.3329 33.231 54.4185 33.231 54.4755 33.2879C54.5611 33.3164 54.5896 33.4019 54.5896 33.4874C54.5896 33.6583 54.447 33.7438 54.2758 33.7438L54.5611 34.1711ZM54.1046 33.6298C54.2473 33.6298 54.4185 33.6583 54.4185 33.4874C54.4185 33.3734 54.3043 33.3449 54.1902 33.3449H53.9335V33.6298H54.1046Z" fill="#E31837"/>
<path d="M50.0547 34.5419C56.046 29.4136 64.4623 24.4278 69.0841 22.6329C68.3708 22.1771 67.2582 21.5218 66.0029 20.8096C60.0401 22.7754 53.0789 27.1344 46.8594 32.0632C47.915 32.8609 49.0276 33.6871 50.0547 34.5419Z" fill="#E31837"/>
<path d="M47.3159 20.6095C46.4314 20.1822 45.4614 19.7833 44.7196 19.4414C42.4658 20.5525 39.5272 22.2334 35.8184 24.883C36.6172 25.3104 37.4731 25.8232 38.386 26.336C41.239 24.2278 44.1205 22.2334 47.3159 20.6095Z" fill="#012169"/>
<path d="M52.6519 18.1595C51.5677 17.5612 47.8018 16.1652 45.2056 15.5669C44.4353 15.8518 43.3511 16.2791 42.6094 16.5925C43.5509 16.849 47.06 17.7891 50.0556 19.2991C50.8259 18.9287 51.9101 18.4729 52.6519 18.1595Z" fill="#E31837"/>
<path d="M39.8983 17.7891C36.5603 19.3275 33.0511 21.4358 31.1396 22.6609C31.8244 22.9743 32.5091 23.2307 33.4506 23.6865C37.673 20.8375 40.9824 19.0996 42.2948 18.5298C41.3533 18.1879 40.4689 17.96 39.8983 17.7891Z" fill="#012169"/>
<path d="M55.1619 17.2764C55.9322 17.02 56.8166 16.792 57.5869 16.5641C55.3616 15.6239 52.5656 14.6268 50.055 14C49.6556 14.114 48.4574 14.4274 47.63 14.6838C48.4859 14.9402 51.3103 15.5955 55.1619 17.2764ZM41.0967 27.9887C42.0096 28.53 42.9796 29.2708 43.9211 29.8975C50.1691 25.0542 56.3316 21.322 63.0931 19.2137C62.1517 18.7294 61.3243 18.302 60.2687 17.7892C56.2175 18.8148 49.2847 21.5784 41.0967 27.9887Z" fill="#E31837"/>
<path d="M0.5 46.4273H3.4345C4.92009 46.4273 5.61703 45.658 5.61703 44.5774C5.61703 43.6983 5.15852 43.1122 4.2048 42.9291C5.04847 42.7276 5.43362 42.2148 5.43362 41.4639C5.43362 40.5115 4.73668 39.7422 3.25109 39.7422H0.518341V46.4273H0.5ZM3.04935 43.5884C3.59956 43.5884 3.98472 43.8631 3.98472 44.4126C3.98472 44.9987 3.6179 45.2368 3.04935 45.2368H2.09563V43.5701H3.04935V43.5884ZM2.86594 40.9144C3.41616 40.9144 3.80131 41.1525 3.80131 41.702C3.80131 42.2514 3.4345 42.4895 2.86594 42.4895H2.09563V40.9144H2.86594ZM11.541 39.7239H9.89039L7.37773 46.4273H9.04672L9.50524 45.0353H11.9262L12.3847 46.4273H14.0721L11.541 39.7239ZM10.7157 41.3357L11.5044 43.8082H9.89039L10.7157 41.3357ZM22.4354 39.7239H20.9131V44.2111L18.052 39.7239H16.3463V46.4273H17.8686V41.9584L20.7297 46.4273H22.4354V39.7239ZM29.4598 46.4273L27.259 43.0206V46.4273H25.6266V39.7239H27.259V42.9474L29.3498 39.7239H31.1655L28.9646 42.9474L31.3673 46.4273H29.4598ZM37.1445 43.0756C37.1445 44.4126 37.9515 45.2368 38.9969 45.2368C40.0424 45.2368 40.8493 44.4126 40.8493 43.0756C40.8493 41.7386 40.0424 40.9144 38.9969 40.9144C37.9515 40.9144 37.1445 41.7386 37.1445 43.0756ZM35.4205 43.0756C35.4389 41.1159 36.8144 39.5774 38.9969 39.5774C41.1795 39.5774 42.555 41.1159 42.5734 43.0756C42.555 45.0353 41.1795 46.5738 38.9969 46.5738C36.8144 46.5738 35.4389 45.0353 35.4205 43.0756ZM44.8109 46.4273H46.4432V43.7899H48.5707V42.5078H46.4432V41.006H49.0109L49.3044 39.7239H44.8109V46.4273ZM56.9157 39.7239H55.2651L52.7524 46.4273H54.4214L54.8799 45.0353H57.3009L57.7594 46.4273H59.4467L56.9157 39.7239ZM56.0904 41.3357L56.879 43.8082H55.2651L56.0904 41.3357ZM69.1306 39.7239H67.2231L65.4808 43.3503L63.7384 39.7239H61.831V46.4273H63.2983V41.9401L65.4624 46.4273L67.6266 41.9401V46.4273H69.1489L69.1306 39.7239ZM72.3035 46.4273H76.8886V45.1452H73.9358V43.6434H76.2651V42.3979H73.9358V41.006H76.6319L76.9253 39.7239H72.3035V46.4273ZM83.1061 46.4273H84.8852L83.2162 43.5884C84.1332 43.332 84.5734 42.691 84.5734 41.7569C84.5734 40.5481 83.8397 39.7422 82.1891 39.7422H79.6031V46.4456H81.1987V43.8082H81.6389L83.1061 46.4273ZM81.8773 40.9694C82.5559 40.9694 82.9044 41.2624 82.9044 41.8302C82.9044 42.3979 82.5559 42.691 81.8773 42.691H81.1804V40.9694H81.8773ZM87.3245 46.4273H88.9568V39.7422H87.3245V46.4273ZM96.99 44.6324C96.3664 45.0719 95.8162 45.2185 95.2476 45.2185C94.0004 45.2185 93.1201 44.3577 93.1201 43.0756C93.1201 41.7935 93.9821 40.9327 95.1926 40.9327C95.7428 40.9327 96.293 41.0792 96.8982 41.5188V39.9986C96.348 39.6873 95.7061 39.5591 94.9908 39.5591C92.7716 39.5591 91.3777 41.0976 91.3594 43.0573C91.3777 45.0353 92.7349 46.5555 94.9908 46.5555C95.7428 46.5555 96.3847 46.4273 96.9716 46.1159V44.6324H96.99ZM102.969 39.7239H101.318L98.8057 46.4273H100.475L100.933 45.0353H103.354L103.813 46.4273H105.5L102.969 39.7239ZM102.144 41.3357L102.932 43.8082H101.318L102.144 41.3357Z" fill="#272727"/>
</svg>
