<svg width="16" height="17" viewBox="0 0 16 17" fill="none" xmlns="http://www.w3.org/2000/svg">
<path d="M4.22743 4.73027L3.28424 3.78783C2.04364 5.02942 1.3335 6.70933 1.3335 8.5C1.3335 12.1819 4.31826 15.1667 8.00016 15.1667C11.6821 15.1667 14.6668 12.1819 14.6668 8.5C14.6668 6.70885 13.9563 5.02852 12.7151 3.78685L11.7721 4.72948C12.7659 5.72359 13.3335 7.06602 13.3335 8.5C13.3335 11.4455 10.9457 13.8333 8.00016 13.8333C5.05464 13.8333 2.66683 11.4455 2.66683 8.5C2.66683 7.0664 3.23416 5.72431 4.22743 4.73027Z" fill="#1E32E1"/>
<path d="M10.1954 8.0286L11.1382 8.9714L8.47157 11.6381C8.21122 11.8984 7.78911 11.8984 7.52876 11.6381L4.86209 8.9714L5.8049 8.0286L7.3335 9.55719V2.5H8.66683V9.55719L10.1954 8.0286Z" fill="#1E32E1"/>
</svg>
