<svg width="106" height="60" viewBox="0 0 106 60" fill="none" xmlns="http://www.w3.org/2000/svg">
<g clip-path="url(#clip0_2157_3033)">
<path fill-rule="evenodd" clip-rule="evenodd" d="M2.28387 25.1597H4.16081C4.19183 25.3325 4.23837 25.4896 4.31593 25.6467C4.34695 25.6938 4.36247 25.7409 4.39349 25.7881C4.93641 26.7307 6.23941 27.1548 7.66649 26.9506C7.94574 26.9035 8.24042 26.8564 8.50416 26.7621C8.76782 26.6835 9.03156 26.5736 9.29523 26.4479L9.34182 26.4322C9.49692 26.3536 9.63651 26.2908 9.76059 26.2122C10.2725 25.9138 10.6913 25.5524 11.0171 25.1597H12.3666C13.3438 25.1597 14.1505 25.9766 14.1505 26.9663V37.2093C14.1505 38.199 13.3438 39.0002 12.3666 39.0002H2.28387C1.30662 39.0002 0.5 38.1833 0.5 37.2093V26.9506C0.5 25.9609 1.30662 25.1597 2.28387 25.1597ZM5.712 34.7271L5.68098 28.066C5.68098 27.9403 5.77405 27.8461 5.88264 27.8461H8.72129C8.82986 27.8461 8.92299 27.9403 8.92299 28.066L8.95401 34.7271H10.5983C10.7068 34.7271 10.7999 34.8685 10.7999 35.0256V35.764C10.7999 35.9368 10.7068 36.0624 10.5983 36.0624H4.05223C3.94364 36.0624 3.85057 35.9211 3.85057 35.764V35.0256C3.85057 34.8528 3.94364 34.7271 4.05223 34.7271H5.712Z" fill="#234A98"/>
<path fill-rule="evenodd" clip-rule="evenodd" d="M6.30118 21.4361C7.82136 20.6977 9.52765 20.9177 10.1016 21.9388C10.691 22.9443 9.93097 24.3582 8.4108 25.0966C6.89063 25.8349 5.19983 25.615 4.61038 24.5938C4.03644 23.5884 4.78101 22.1745 6.30118 21.4361ZM10.8927 23.6827C10.7997 24.4996 10.1016 25.3636 9.03126 25.8978C8.13156 26.3377 7.16984 26.4319 6.40976 26.2277C6.62693 26.2277 6.84409 26.212 7.06126 26.1806C7.34048 26.1491 7.61967 26.0863 7.89891 25.992C8.16258 25.9135 8.42631 25.8035 8.68998 25.6778L8.73658 25.6621C8.87617 25.5993 9.01576 25.5207 9.15534 25.4422C9.96199 24.9552 10.5514 24.3268 10.8927 23.6827ZM6.51835 21.7189C7.69722 21.1533 9.04677 21.3261 9.49663 22.1117C9.58969 22.2688 9.63622 22.4573 9.65173 22.6458C9.63622 22.5987 9.6052 22.5515 9.57418 22.5044C9.10881 21.7189 7.77483 21.5304 6.5959 22.1117C5.64967 22.5672 5.09125 23.3685 5.12227 24.0597C4.81204 23.2742 5.40148 22.2688 6.51835 21.7189Z" fill="#9B3589"/>
<path fill-rule="evenodd" clip-rule="evenodd" d="M17.4384 38.4657C17.9813 38.45 18.3536 38.4186 18.5242 38.3557C18.881 38.23 19.1292 37.9315 19.2533 37.4917L21.8128 28.1599C21.9679 27.6257 21.9214 27.2801 21.6887 27.1073C21.5491 26.9973 21.1768 26.9502 20.6028 26.9345L20.7425 26.4161H25.6907L25.5511 26.9345C24.9617 26.9973 24.5894 27.0602 24.4498 27.1073C24.1085 27.2487 23.8759 27.5472 23.7518 28.0028L21.2078 37.256C21.0682 37.7902 21.0992 38.1358 21.3474 38.2929C21.5025 38.4028 21.8593 38.45 22.4333 38.4657L22.2937 38.9841H17.2988L17.4384 38.4657ZM23.0847 38.5285C23.5191 38.5285 23.8293 38.45 24.062 38.3086C24.3257 38.1358 24.5118 37.853 24.6359 37.4288L26.1096 32.0874C26.2181 31.7104 26.1561 31.459 25.9545 31.3333C25.8149 31.2391 25.5356 31.1762 25.1323 31.1762L25.272 30.6892C26.4664 30.6578 27.4746 30.6106 28.2813 30.5164L27.9245 31.8046C28.5294 31.3019 28.9638 30.972 29.2585 30.8149C29.7238 30.5635 30.2047 30.4221 30.7166 30.4221C32.3299 30.4221 32.9193 31.2076 32.5005 32.7787L31.213 37.4603C31.1044 37.8687 31.1044 38.1515 31.244 38.2929C31.3837 38.4343 31.6473 38.4971 32.0662 38.4814L31.9266 38.9841H27.8314L27.971 38.4814C28.3898 38.4657 28.7 38.4186 28.9017 38.3086C29.1654 38.1672 29.3671 37.9002 29.4602 37.5073L30.6856 33.0771C30.8407 32.4959 30.8873 32.0717 30.7942 31.8046C30.6856 31.459 30.3599 31.2862 29.8014 31.2862C29.2896 31.2862 28.7932 31.5689 28.2813 32.1346C27.8469 32.6215 27.5367 33.1557 27.3971 33.7055C27.2885 34.0983 27.1178 34.711 26.9007 35.5279C26.6835 36.3448 26.5129 36.9418 26.4043 37.3503C26.2802 37.8059 26.2802 38.12 26.4043 38.2772C26.5284 38.4343 26.8232 38.4971 27.304 38.4814L27.1644 38.9841H22.9607L23.0847 38.5285ZM34.9359 30.6106H36.1458C36.1768 30.5164 36.2078 30.3907 36.2543 30.2179C36.3009 30.0451 36.3319 29.9194 36.363 29.8409C36.6422 28.7569 36.9834 27.9556 37.3868 27.4058C37.9607 26.6203 38.7207 26.2275 39.667 26.2275C40.2564 26.2275 40.6908 26.4003 40.97 26.7617C41.2647 27.123 41.3267 27.5786 41.1716 28.1599C41.1096 28.3955 40.9545 28.5998 40.7063 28.7883C40.4581 28.9768 40.2254 29.0711 39.9928 29.0711C39.7445 29.0711 39.5584 28.9768 39.4188 28.7726C39.2947 28.5683 39.2482 28.3484 39.3257 28.097C39.3567 27.9556 39.4654 27.7671 39.6049 27.5472C39.7445 27.3272 39.8376 27.1701 39.8686 27.0602C39.9307 26.8559 39.7911 26.746 39.4498 26.746C39.2637 26.746 39.062 26.8559 38.8448 27.0602C38.6277 27.2644 38.5036 27.4686 38.4416 27.6886C38.3484 28.0342 38.2399 28.5212 38.1468 29.1339C38.0227 29.8252 37.9297 30.2965 37.8676 30.5635H39.7135L39.5429 31.1762H37.697L36.0062 37.3345C35.8821 37.7744 35.8976 38.073 36.0527 38.2615C36.1768 38.4343 36.4716 38.5129 36.9214 38.4814L36.7973 38.937H32.6556L32.7797 38.4814C33.2295 38.45 33.5398 38.4028 33.6949 38.3243C33.9431 38.1986 34.1292 37.9315 34.2378 37.5231L35.9907 31.1605H34.7807L34.9359 30.6106ZM38.2709 38.5442C38.7363 38.5129 39.0465 38.45 39.2016 38.3714C39.4964 38.2458 39.6825 37.9787 39.7911 37.5859L41.2957 32.1188C41.4044 31.7104 41.3733 31.4276 41.1716 31.2862C41.0476 31.1919 40.7528 31.1291 40.3185 31.1134L40.4426 30.6892L43.4054 30.5478L41.4819 37.5231C41.3578 37.9472 41.3888 38.2143 41.5439 38.34C41.6215 38.3871 41.8852 38.4657 42.366 38.5442L42.242 38.9841H38.1468L38.2709 38.5442ZM43.5605 26.4003H43.545C43.8087 26.4003 44.0259 26.5103 44.1654 26.7303C44.305 26.9502 44.3361 27.1859 44.274 27.4686C44.1965 27.7671 44.0259 28.0028 43.7621 28.1756C43.4985 28.3641 43.2192 28.4427 42.9245 28.4427C42.6608 28.4427 42.4592 28.3327 42.3195 28.1127C42.1799 27.8928 42.1334 27.6572 42.2109 27.3901C42.2885 27.123 42.4592 26.8874 42.7383 26.6831C43.0021 26.4946 43.2812 26.4003 43.5605 26.4003ZM42.94 38.5285C43.3743 38.5285 43.6846 38.45 43.9173 38.3086C44.181 38.1358 44.3671 37.853 44.4912 37.4288L45.9649 32.0874C46.0734 31.7104 46.0114 31.459 45.8097 31.3333C45.6701 31.2391 45.3909 31.1762 44.9876 31.1762L45.1272 30.6892C46.3216 30.6578 47.3299 30.6106 48.1365 30.5164L47.7797 31.8046C48.3847 31.3019 48.819 30.972 49.1138 30.8149C49.5791 30.5635 50.06 30.4221 50.5719 30.4221C52.1851 30.4221 52.7746 31.2076 52.3557 32.7787L51.0683 37.4603C50.9596 37.8687 50.9596 38.1515 51.0993 38.2929C51.2389 38.4343 51.5026 38.4971 51.9214 38.4814L51.7818 38.9841H47.6867L47.8262 38.4814C48.2451 38.4657 48.5553 38.4186 48.757 38.3086C49.0207 38.1672 49.2223 37.9002 49.3154 37.5073L50.5409 33.0771C50.696 32.4959 50.7425 32.0717 50.6494 31.8046C50.5409 31.459 50.2151 31.2862 49.6567 31.2862C49.1448 31.2862 48.6484 31.5689 48.1365 32.1346C47.7022 32.6215 47.3919 33.1557 47.2523 33.7055C47.1437 34.0983 46.9731 34.711 46.7559 35.5279C46.5388 36.3448 46.3681 36.9418 46.2595 37.3503C46.1355 37.8059 46.1355 38.12 46.2595 38.2772C46.3836 38.4343 46.6784 38.4971 47.1593 38.4814L47.0197 38.9841H42.8159L42.94 38.5285Z" fill="#9B3589"/>
<path d="M55.7382 26.165H60.795C61.8033 26.165 62.5479 26.2122 63.0443 26.2907C63.5407 26.3693 63.975 26.5578 64.3628 26.8249C64.7506 27.0919 65.0764 27.4533 65.34 27.8931C65.6038 28.333 65.7278 28.8357 65.7278 29.3856C65.7278 29.9826 65.5728 30.5324 65.247 31.0351C64.9212 31.5379 64.4869 31.9149 63.9439 32.1663C64.7196 32.3862 65.309 32.779 65.7278 33.3288C66.1467 33.8787 66.3483 34.5228 66.3483 35.2612C66.3483 35.8424 66.2087 36.408 65.945 36.9579C65.6813 37.5077 65.309 37.9476 64.8437 38.2775C64.3783 38.6074 63.8044 38.8117 63.1219 38.8902C62.703 38.9373 61.6637 38.9688 60.035 38.9845H55.7227V26.165H55.7382ZM58.2821 28.3016V31.2708H59.9575C60.9502 31.2708 61.5707 31.2551 61.8188 31.2237C62.2532 31.1766 62.5945 31.0195 62.8581 30.7681C63.1064 30.5167 63.2304 30.1868 63.2304 29.7627C63.2304 29.3699 63.1219 29.04 62.9047 28.7886C62.6875 28.5373 62.3617 28.3958 61.943 28.3488C61.6948 28.3173 60.9657 28.3016 59.7557 28.3016H58.2821ZM58.2821 33.4074V36.8322H60.6399C61.5552 36.8322 62.1446 36.8007 62.3928 36.7537C62.7806 36.6908 63.0753 36.518 63.3235 36.2509C63.5562 35.9838 63.6803 35.6225 63.6803 35.1669C63.6803 34.7741 63.5872 34.46 63.401 34.1929C63.2149 33.9258 62.9512 33.7216 62.61 33.6116C62.2687 33.486 61.5086 33.4231 60.3452 33.4231L58.2821 33.4074ZM79.9057 38.9845H77.129L76.0275 36.0781H70.9711L69.9313 38.9845H67.2015L72.1343 26.165H74.8334L79.9057 38.9845ZM75.2054 33.9258L73.4684 29.1657L71.7616 33.9258H75.2054ZM81.2864 38.9845V26.165H83.768L88.9494 34.727V26.165H91.3225V38.9845H88.7627L83.6596 30.6267V38.9845H81.2864ZM94.0683 38.9845V26.165H96.6274V31.852L101.793 26.165H105.237L100.475 31.1608L105.5 38.9845H102.197L98.7219 32.9675L96.6432 35.1041V38.9845H94.0683Z" fill="#234A98"/>
</g>
<defs>
<clipPath id="clip0_2157_3033">
<rect width="105" height="18" fill="white" transform="translate(0.5 21)"/>
</clipPath>
</defs>
</svg>
