<svg width="93" height="21" viewBox="0 0 93 21" fill="none" xmlns="http://www.w3.org/2000/svg">
<path d="M15.4357 0.595592L15.3439 0.887577C15.309 0.991278 15.2735 1.09498 15.2303 1.19694C14.9722 1.80003 14.6165 2.31042 14.1424 2.75883C13.6571 3.21766 13.0634 3.57801 12.3289 3.8613C11.5843 4.1475 10.7012 4.29291 9.70331 4.29291C8.7048 4.29291 7.82113 4.1475 7.07654 3.8613C6.3426 3.57859 5.74835 3.21708 5.26064 2.75593C4.78655 2.30869 4.43142 1.79945 4.17513 1.20042C4.12897 1.0915 3.94548 0.595592 3.94548 0.595592H0V20.0085H4.05557V6.81128C4.53914 7.08473 5.05467 7.32399 5.5992 7.52444C5.61755 7.53197 5.63471 7.54008 5.65365 7.54703C5.71994 7.57253 5.78979 7.59222 5.85667 7.61598C5.89218 7.62872 5.92829 7.64031 5.96439 7.65247C6.78119 7.93403 7.66546 8.12116 8.60773 8.19879C8.95103 8.22602 9.30438 8.23992 9.65773 8.24108C9.67312 8.24108 9.68792 8.24224 9.70331 8.24224H9.70449C10.0726 8.24224 10.4414 8.22775 10.8001 8.19879C11.7441 8.12174 12.6302 7.93403 13.447 7.65132C13.4783 7.64031 13.5109 7.62988 13.5423 7.61887C13.6115 7.59396 13.6843 7.57368 13.753 7.54703C13.7713 7.54008 13.7891 7.53197 13.8074 7.52444C14.3514 7.32399 14.8669 7.08473 15.3505 6.81128V20.0085H19.406V0.595592H15.4357Z" fill="#E02D42"/>
<path d="M34.7304 8.25556C34.0492 7.6125 33.2158 7.09863 32.2522 6.72843C31.2904 6.35766 30.196 6.16995 28.9987 6.16995C27.8019 6.16995 26.7069 6.35766 25.7439 6.72785C24.7815 7.09805 23.9475 7.61192 23.2675 8.25498C22.5862 8.89746 22.0541 9.65929 21.686 10.5202C21.319 11.3811 21.1331 12.315 21.1331 13.2946C21.1331 14.2749 21.319 15.2082 21.6865 16.0696C22.0547 16.9305 22.5862 17.6924 23.2675 18.3343C23.9469 18.9767 24.7803 19.4906 25.7445 19.862C26.7075 20.2322 27.8025 20.4199 28.9992 20.4199C30.196 20.4199 31.2904 20.2322 32.2528 19.8614C33.2176 19.49 34.0515 18.9762 34.731 18.3343C35.4117 17.6918 35.9432 16.9299 36.3108 16.0696C36.6777 15.2111 36.8642 14.2772 36.8642 13.2946C36.8642 12.3121 36.6783 11.3788 36.3108 10.5196C35.9426 9.65987 35.4111 8.89804 34.7304 8.25556ZM33.2525 13.2952C33.2525 13.8085 33.1566 14.3021 32.9672 14.7609C32.7772 15.2192 32.4984 15.6282 32.1368 15.9769C31.774 16.3274 31.3247 16.6096 30.8021 16.8152C30.2777 17.0221 29.671 17.1269 28.9992 17.1269C28.3263 17.1269 27.7196 17.0221 27.1952 16.8152C26.6714 16.609 26.2227 16.3269 25.8599 15.9769C25.4983 15.6276 25.2195 15.2186 25.0301 14.7609C24.8407 14.3027 24.7442 13.8102 24.7442 13.2952C24.7442 12.7807 24.8407 12.286 25.0301 11.8237C25.2189 11.3625 25.4983 10.9518 25.8593 10.6024C26.2215 10.2525 26.6708 9.96981 27.1946 9.76357C27.7172 9.55675 28.3239 9.45189 28.9981 9.45189C29.6716 9.45189 30.2777 9.55675 30.8009 9.76357C31.3236 9.96981 31.7728 10.2519 32.1356 10.6024C32.4973 10.9512 32.776 11.362 32.966 11.8231C33.1566 12.2872 33.2525 12.7819 33.2525 13.2952Z" fill="#E02D42"/>
<path d="M52.317 10.1065C51.6452 8.39113 50.2892 7.06097 48.5976 6.45615C45.9537 5.51067 42.1905 5.80092 40.1142 8.18372C39.6413 8.72598 39.256 9.3731 38.9689 10.1071C38.6161 11.0074 38.4374 12.0595 38.4374 13.2355V20.008H42.0295V13.4771C42.0538 12.8729 42.1485 12.33 42.3095 11.8631C42.7492 10.5891 43.8584 9.67493 45.2044 9.47738C46.4728 9.29083 47.6808 9.7937 48.4372 10.8214C48.9445 11.5108 49.2126 12.3787 49.257 13.4684L49.2582 16.6519C49.2588 17.4479 49.2599 18.2439 49.2617 18.8412C49.2647 20.0085 49.2647 20.0085 49.4446 20.0085H52.8485V12.9609L52.8361 12.8978C52.8047 11.844 52.6301 10.9049 52.317 10.1065Z" fill="#E02D42"/>
<path d="M92.8579 1.20273C92.4087 0.976213 91.8855 0.801254 91.3043 0.680173C90.7278 0.56083 90.1306 0.500579 89.5292 0.500579C88.6651 0.500579 87.8755 0.634985 87.1836 0.899162C86.4869 1.16566 85.888 1.55729 85.402 2.06247C84.9167 2.56707 84.5408 3.19275 84.2857 3.92271C84.0484 4.60111 83.9205 5.378 83.9051 6.23484H76.918C76.9695 5.47939 77.1926 4.90816 77.5827 4.53449C78.0023 4.13301 78.5664 3.92966 79.2595 3.92966C79.6211 3.92966 79.9555 3.97311 80.2544 4.05886C80.5539 4.1446 80.7877 4.23787 80.9487 4.33578L81.128 4.44469L82.4136 1.27399L82.271 1.20215C81.8217 0.976213 81.2991 0.800675 80.7173 0.679594C80.1408 0.560251 79.543 0.5 78.9416 0.5C78.0775 0.5 77.2879 0.634406 76.596 0.898582C75.8994 1.16508 75.3004 1.55671 74.8144 2.06189C74.3291 2.56649 73.9532 3.19217 73.6982 3.92213C73.4608 4.60053 73.333 5.37742 73.3176 6.23426H71.1063V9.1066H73.3164V20.0074H76.9085V9.10718H83.9034V20.008H87.4955V9.10718H91.2054V6.23484H87.5044C87.5559 5.47939 87.779 4.90816 88.1691 4.53449C88.5887 4.13301 89.1528 3.92966 89.8459 3.92966C90.2075 3.92966 90.5419 3.97311 90.8408 4.05886C91.1403 4.1446 91.3741 4.23787 91.5351 4.33578L91.7144 4.44469L93 1.27399L92.8579 1.20273Z" fill="#E02D42"/>
<path d="M68.4357 8.37027C67.7332 7.68955 66.8666 7.14671 65.8605 6.75624C64.8554 6.36693 63.7131 6.16937 62.4648 6.16937C61.2089 6.16937 60.0695 6.36519 59.0781 6.75045C58.0873 7.13744 57.2379 7.66232 56.5537 8.31175C55.8689 8.96293 55.3362 9.72301 54.9716 10.5706C54.607 11.4187 54.4223 12.3196 54.4223 13.2488C54.4223 14.247 54.6147 15.1925 54.9941 16.0592C55.3747 16.9288 55.95 17.6964 56.704 18.34C57.4528 18.9814 58.3968 19.4947 59.509 19.8649C60.6164 20.2333 61.9197 20.4204 63.3834 20.4204C63.9552 20.4204 64.508 20.3932 65.0265 20.3399C65.5456 20.2866 66.0493 20.2067 66.5228 20.1035C66.827 20.0375 67.1158 19.946 67.3952 19.8579L67.6763 19.7698L66.405 16.7538L66.1008 16.8315C66.0285 16.8506 65.9563 16.8703 65.8823 16.8871C64.4388 17.2069 62.891 17.1906 61.7043 16.9323C61.1112 16.8042 60.5815 16.62 60.1293 16.3854C59.6824 16.1525 59.3065 15.8738 59.013 15.5569C58.781 15.3072 58.5975 15.0344 58.4667 14.7424H70.5748L70.5931 14.59C70.6085 14.4643 70.618 14.3241 70.6221 14.1694C70.6251 14.0205 70.6275 13.8803 70.6275 13.7506C70.6275 12.7031 70.4375 11.7049 70.0622 10.7844C69.6858 9.86321 69.1389 9.05099 68.4357 8.37027ZM58.4619 11.7686C58.5702 11.5143 58.717 11.2681 58.9011 11.034C59.1396 10.7328 59.4433 10.4628 59.8037 10.2317C60.1677 9.99878 60.5974 9.8105 61.081 9.67203C61.5675 9.53299 62.1138 9.46231 62.7051 9.46231C63.2609 9.46231 63.7782 9.52894 64.2428 9.66045C64.7033 9.7908 65.1135 9.97271 65.4627 10.201C65.8078 10.4275 66.1002 10.6969 66.3322 11.0028C66.5133 11.242 66.6589 11.4987 66.7672 11.7681H58.4619V11.7686Z" fill="#E02D42"/>
</svg>
