<svg width="16" height="16" viewBox="0 0 16 16" fill="none" xmlns="http://www.w3.org/2000/svg">
<path d="M7.33333 2C10.2789 2 12.6667 4.38781 12.6667 7.33333C12.6667 8.56547 12.2488 9.70001 11.5472 10.603L14.1381 13.1953L13.1953 14.1381L10.603 11.5472C9.70001 12.2488 8.56547 12.6667 7.33333 12.6667C4.38781 12.6667 2 10.2789 2 7.33333C2 4.38781 4.38781 2 7.33333 2ZM7.33333 3.33333C5.12419 3.33333 3.33333 5.12419 3.33333 7.33333C3.33333 9.54247 5.12419 11.3333 7.33333 11.3333C9.54247 11.3333 11.3333 9.54247 11.3333 7.33333C11.3333 5.12419 9.54247 3.33333 7.33333 3.33333Z" fill="black"/>
</svg>
