<svg width="21" height="20" viewBox="0 0 21 20" fill="none" xmlns="http://www.w3.org/2000/svg">
<path d="M7.08588 2H4.50006V0H9.50006C10.0523 0 10.5001 0.447715 10.5001 1V6H8.50006V3.41424L2.20718 9.70712L0.792969 8.29291L7.08588 2Z" fill="#1E32E1"/>
<path fill-rule="evenodd" clip-rule="evenodd" d="M13.5 4C12.9477 4 12.5 4.44772 12.5 5V8H7.5C6.94772 8 6.5 8.44772 6.5 9V12H1.5C0.947715 12 0.5 12.4477 0.5 13V19C0.5 19.5523 0.947715 20 1.5 20H19.5C20.0523 20 20.5 19.5523 20.5 19V5C20.5 4.44772 20.0523 4 19.5 4H13.5ZM12.5 18H8.5V10H12.5V18ZM2.5 14H6.5V18H2.5V14ZM14.5 18H18.5V6H14.5V18Z" fill="#1E32E1"/>
</svg>
